<?xml version="1.0" standalone="no"?>
<!DOCTYPE svg PUBLIC "-//W3C//DTD SVG 20010904//EN"
 "http://www.w3.org/TR/2001/REC-SVG-20010904/DTD/svg10.dtd">
<svg version="1.0" xmlns="http://www.w3.org/2000/svg"
 width="300.000000pt" height="300.000000pt" viewBox="0 0 300.000000 300.000000"
 preserveAspectRatio="xMidYMid meet">

<g transform="translate(0.000000,300.000000) scale(0.100000,-0.100000)"
fill="#000000" stroke="none">
<path d="M1908 2413 c12 -2 30 -2 40 0 9 3 -1 5 -23 4 -22 0 -30 -2 -17 -4z"/>
<path d="M2130 2370 c143 -123 180 -197 180 -360 0 -170 -52 -302 -163 -417
-85 -89 -130 -107 -245 -101 -127 6 -230 74 -308 203 -20 33 -33 51 -30 40 32
-95 145 -221 233 -261 83 -38 206 -40 278 -4 206 101 338 442 260 668 -33 95
-91 164 -195 231 -33 21 -33 21 -10 1z"/>
<path d="M710 2166 c0 -3 30 -26 68 -52 111 -78 106 -69 67 -123 l-33 -46 33
-44 33 -44 -31 -57 -31 -56 27 -39 c34 -50 34 -59 -3 -105 l-30 -38 34 -42
c22 -28 31 -49 28 -65 -3 -19 3 -27 34 -44 46 -23 156 -133 176 -176 30 -62
40 -124 36 -217 -4 -76 -10 -104 -33 -153 -80 -167 -269 -254 -467 -215 -88
17 -133 43 -210 120 -49 49 -63 59 -51 37 27 -54 115 -132 187 -167 63 -31 80
-35 170 -38 84 -3 111 0 161 17 122 43 212 128 266 251 20 46 24 71 24 156 0
97 -1 104 -38 176 -44 86 -91 139 -165 187 -39 25 -52 39 -52 58 0 13 -11 41
-25 61 -22 33 -23 38 -10 57 34 45 36 64 14 116 l-22 50 24 50 23 51 -22 41
c-26 49 -27 66 -7 93 8 10 15 34 15 51 0 30 -7 37 -82 86 -107 69 -108 69
-108 63z"/>
<path d="M2524 1240 c110 -102 131 -162 124 -366 -5 -141 -16 -179 -65 -211
-25 -17 -72 -18 -643 -18 -338 0 -632 4 -652 8 -21 4 -52 20 -69 34 l-32 27
16 -30 c8 -16 35 -40 59 -54 l43 -25 605 -6 c378 -4 620 -3 646 3 49 12 106
66 123 118 33 98 21 302 -23 388 -24 47 -124 149 -169 174 -12 6 4 -13 37 -42z"/>
<path d="M303 1045 c0 -22 2 -30 4 -17 2 12 2 30 0 40 -3 9 -5 -1 -4 -23z"/>
<path d="M641 988 c-18 -6 -49 -26 -67 -43 -47 -44 -46 -82 1 -124 20 -17 40
-31 45 -31 4 0 17 -3 27 -6 10 -3 4 3 -14 14 -37 25 -56 56 -48 81 20 64 166
94 244 50 23 -12 41 -27 41 -33 0 -5 2 -7 5 -4 3 3 0 18 -7 33 -24 54 -149 89
-227 63z"/>
</g>
</svg>
